<?xml version="1.0" standalone="no"?>
<!DOCTYPE svg PUBLIC "-//W3C//DTD SVG 20010904//EN"
 "http://www.w3.org/TR/2001/REC-SVG-20010904/DTD/svg10.dtd">
<svg version="1.0" xmlns="http://www.w3.org/2000/svg"
 width="100.000000pt" height="50.000000pt" viewBox="0 0 100.000000 50.000000"
 preserveAspectRatio="xMidYMid meet">
<metadata>
Created by potrace 1.11, written by Peter Selinger 2001-2013
</metadata>
<g transform="translate(0.000000,50.000000) scale(0.100000,-0.100000)"
fill="#000000" stroke="none">
<path d="M245 455 c-5 -2 -36 -9 -67 -15 -37 -7 -58 -16 -58 -25 0 -10 -18
-15 -63 -18 l-62 -3 63 -2 c62 -2 62 -2 62 -32 0 -29 -1 -29 -62 -33 l-63 -3
63 -2 c62 -2 62 -2 62 -32 0 -29 -1 -29 -62 -33 l-63 -3 63 -2 c59 -2 62 -3
62 -27 0 -24 -3 -25 -60 -25 -33 0 -60 -4 -60 -10 0 -6 27 -10 60 -10 57 0 60
-1 60 -25 0 -24 -3 -25 -60 -25 -33 0 -60 -4 -60 -10 0 -5 14 -10 30 -10 27 0
29 -2 19 -19 -15 -23 -5 -51 18 -51 28 0 63 29 63 51 0 18 9 19 284 19 243 0
285 -2 290 -15 7 -19 37 -19 62 0 10 8 41 15 67 15 45 0 47 -1 37 -21 -16 -28
-6 -49 23 -49 24 0 67 37 67 58 0 7 9 12 20 12 11 0 20 5 20 10 0 6 -9 10 -20
10 -15 0 -20 7 -20 25 0 18 5 25 20 25 11 0 20 5 20 10 0 6 -9 10 -20 10 -30
0 -28 47 3 53 l22 4 -22 2 c-33 2 -33 58 0 64 13 3 6 5 -18 6 -22 1 -69 8
-105 16 -82 18 -80 18 -80 0 0 -12 -15 -15 -75 -15 l-75 0 0 30 0 30 188 3
187 2 -201 3 c-175 2 -275 10 -336 28 -12 4 -18 0 -18 -10 0 -13 -14 -16 -75
-16 l-75 0 0 30 c0 25 -4 30 -22 29 -13 0 -27 -2 -33 -4z m35 -45 c0 -5 -19
-10 -42 -9 -37 1 -39 2 -18 9 36 12 60 12 60 0z m0 -50 l0 -30 -75 0 -75 0 0
30 0 30 75 0 75 0 0 -30z m170 0 l0 -30 -75 0 -75 0 0 30 0 30 75 0 75 0 0
-30z m103 10 c37 -8 57 -16 57 -26 0 -11 -17 -14 -75 -14 l-75 0 0 31 c0 24 4
29 18 25 9 -2 43 -10 75 -16z m-273 -80 l0 -30 -75 0 -75 0 0 30 0 30 75 0 75
0 0 -30z m170 0 l0 -30 -75 0 -75 0 0 30 0 30 75 0 75 0 0 -30z m160 0 l0 -31
-72 3 c-71 3 -73 4 -76 31 l-3 27 75 0 76 0 0 -30z m170 0 l0 -30 -75 0 -75 0
0 30 0 30 75 0 75 0 0 -30z m70 20 c25 -6 55 -12 68 -15 12 -3 22 -12 22 -21
0 -12 -13 -14 -72 -12 -71 3 -73 4 -76 31 -4 30 -4 30 58 17z m-642 -85 c-9
-19 -19 -25 -45 -25 -29 0 -33 3 -33 25 0 23 4 25 45 25 44 0 44 0 33 -25z
m242 15 c0 -5 -11 -10 -24 -10 -13 0 -29 -7 -36 -15 -8 -10 -30 -15 -60 -15
-48 0 -48 0 -37 25 11 23 17 25 85 25 41 0 72 -4 72 -10z m160 -15 c0 -24 -2
-25 -75 -25 -73 0 -75 1 -75 25 0 24 2 25 75 25 73 0 75 -1 75 -25z m170 0 c0
-24 -2 -25 -75 -25 -73 0 -75 1 -75 25 0 24 2 25 75 25 73 0 75 -1 75 -25z
m160 0 c0 -24 -2 -25 -75 -25 -73 0 -75 1 -75 25 0 24 2 25 75 25 73 0 75 -1
75 -25z m-566 -60 c7 -19 37 -19 62 0 10 8 40 15 66 15 47 0 47 0 36 -25 l-11
-25 -199 0 -198 0 0 25 0 25 119 0 c96 0 120 -3 125 -15z m406 5 c0 -5 -11
-10 -24 -10 -13 0 -29 -7 -36 -15 -8 -10 -30 -15 -60 -15 -48 0 -48 0 -37 25
11 23 17 25 85 25 41 0 72 -4 72 -10z m160 -15 c0 -24 -2 -25 -75 -25 -73 0
-75 1 -75 25 0 24 2 25 75 25 73 0 75 -1 75 -25z"/>
</g>
</svg>
